<?xml version="1.0" encoding="UTF-8" standalone="no"?>
<!DOCTYPE svg PUBLIC "-//W3C//DTD SVG 1.1//EN" "http://www.w3.org/Graphics/SVG/1.1/DTD/svg11.dtd">
<svg xmlns="http://www.w3.org/2000/svg" version="1.1" viewBox="0 0 256 256" width="256.0pt" height="256.0pt">
<path d="M 0.00 0.00 L 124.27 0.00 C 100.75 0.75 77.59 7.90 57.92 20.87 C 34.40 36.22 16.19 59.42 7.07 86.00 C 2.72 98.24 0.57 111.04 0.00 123.99 L 0.00 0.00 Z" fill="#ffffff" />
<path d="M 124.27 0.00 L 132.01 0.00 L 132.73 0.03 C 156.16 1.00 179.18 8.22 198.69 21.27 C 222.57 37.03 240.85 60.96 249.67 88.18 C 253.55 99.85 255.52 112.01 256.00 124.28 L 256.00 132.00 C 255.15 155.68 247.91 178.97 234.73 198.69 C 218.97 222.57 195.04 240.85 167.82 249.67 C 156.15 253.55 143.99 255.52 131.73 256.00 L 123.99 256.00 C 100.32 255.15 77.02 247.92 57.31 234.73 C 33.43 218.97 15.15 195.04 6.33 167.82 C 2.45 156.16 0.47 143.99 0.00 131.73 L 0.00 123.99 C 0.57 111.04 2.72 98.24 7.07 86.00 C 16.19 59.42 34.40 36.22 57.92 20.87 C 77.59 7.90 100.75 0.75 124.27 0.00 Z" fill="#f0b90b" />
<path d="M 132.01 0.00 L 256.00 0.00 L 256.00 124.28 C 255.52 112.01 253.55 99.85 249.67 88.18 C 240.85 60.96 222.57 37.03 198.69 21.27 C 179.18 8.22 156.16 1.00 132.73 0.03 L 132.01 0.00 Z" fill="#ffffff" />
<path d="M 128.00 39.02 C 146.26 57.25 164.51 75.49 182.74 93.76 C 176.07 100.44 169.39 107.10 162.72 113.78 C 151.08 102.31 139.60 90.66 128.00 79.15 C 116.43 90.69 104.87 102.25 93.32 113.82 C 86.63 107.14 79.94 100.45 73.26 93.76 C 90.81 76.16 108.41 58.60 125.98 41.02 C 126.65 40.35 127.33 39.68 128.00 39.02 Z" fill="#ffffff" />
<path d="M 59.06 108.00 C 65.81 114.60 72.44 121.32 79.11 128.00 C 72.44 134.70 65.76 141.39 59.06 148.05 C 52.37 141.38 45.68 134.70 39.02 128.00 C 45.69 121.33 52.32 114.60 59.06 108.00 Z" fill="#ffffff" />
<path d="M 128.00 107.57 C 134.89 114.31 141.66 121.18 148.48 128.00 C 141.67 134.84 134.84 141.67 128.00 148.48 C 121.18 141.70 114.38 134.89 107.59 128.07 C 114.31 121.15 121.12 114.32 128.00 107.57 Z" fill="#ffffff" />
<path d="M 196.94 108.00 C 203.68 114.60 210.31 121.33 216.98 128.00 C 210.32 134.69 203.63 141.38 196.94 148.05 C 190.24 141.38 183.56 134.70 176.89 128.00 C 183.56 121.32 190.19 114.60 196.94 108.00 Z" fill="#ffffff" />
<path d="M 0.00 131.73 C 0.47 143.99 2.45 156.16 6.33 167.82 C 15.15 195.04 33.43 218.97 57.31 234.73 C 77.02 247.92 100.32 255.15 123.99 256.00 L 0.00 256.00 L 0.00 131.73 Z" fill="#ffffff" />
<path d="M 256.00 132.00 L 256.00 256.00 L 131.73 256.00 C 143.99 255.52 156.15 253.55 167.82 249.67 C 195.04 240.85 218.97 222.57 234.73 198.69 C 247.91 178.97 255.15 155.68 256.00 132.00 Z" fill="#ffffff" />
<path d="M 93.31 142.24 C 104.93 153.71 116.41 165.34 128.00 176.85 C 139.58 165.31 151.12 153.72 162.70 142.18 C 169.36 148.89 176.07 155.55 182.74 162.24 C 164.51 180.51 146.26 198.75 128.00 216.99 C 109.74 198.75 91.49 180.51 73.26 162.24 C 79.25 156.25 85.24 150.25 91.24 144.27 C 91.93 143.59 92.62 142.91 93.31 142.24 Z" fill="#ffffff" />
</svg>